<svg xmlns="http://www.w3.org/2000/svg" width="74" height="74" fill="none"><path fill="#fff" d="M0 0h74v74H0z"/><path fill="#CFCFCF" d="M32 20h10v20H32z"/><path fill="#CFCFCF" d="M28 22h18v20H28z"/><path fill="#CFCFCF" d="M22 28h30v10H22z"/><path fill="#000" d="M26 36h2v2h-2zm0 2h2v2h-2zm0-4h2v2h-2zm-2-6h2v2h-2z"/><path fill="#737373" d="M26 28h2v2h-2z"/><path fill="#000" d="M34 28h2v2h-2zm2 6h2v2h-2zm-2 0h2v2h-2zm-2-2h2v2h-2z"/><path fill="#CFCFCF" d="M30 42h2v2h-2zm12 0h2v2h-2z"/><path fill="#000" d="M40 32h2v2h-2zm-2 2h2v2h-2zm0-6h2v2h-2zm-16 0h2v2h-2zm2 8h2v2h-2z"/><path fill="#737373" d="M22 36h2v2h-2z"/><path fill="#000" d="M20 32h2v2h-2z"/><path fill="#737373" d="M20 34h2v2h-2z"/><path fill="#000" d="M26 32h2v2h-2zm20 4h2v2h-2zm0 2h2v2h-2zm0-4h2v2h-2zm2-6h2v2h-2z"/><path fill="#737373" d="M46 28h2v2h-2z"/><path fill="#000" d="M50 28h2v2h-2zm-2 8h2v2h-2zm0-4h2v2h-2zm-24 0h2v2h-2z"/><path fill="#737373" d="M50 36h2v2h-2z"/><path fill="#000" d="M52 32h2v2h-2z"/><path fill="#737373" d="M52 34h2v2h-2z"/><path fill="#000" d="M46 32h2v2h-2zm-2 8h2v2h-2zm-4 2h2v2h-2z"/><path fill="#737373" d="M42 40h2v2h-2z"/><path fill="#000" d="M36 42h2v2h-2zm-8-2h2v2h-2z"/><path fill="#737373" d="M30 40h2v2h-2zm4 2h6v2h-6z"/><path fill="#000" d="M32 42h2v2h-2zm-4-20h2v2h-2zm16 0h2v2h-2z"/><path fill="#737373" d="M26 24h2v2h-2zm20 0h2v2h-2z"/><path fill="#000" d="M26 26h2v2h-2zm20 0h2v2h-2zM30 16h2v6h-2zm4-2h2v8h-2zm4 0h2v8h-2zm4 2h2v6h-2zm10 14h2v2h-2zm-32 0h2v2h-2z"/><path fill="url(#a)" d="M4 4h66v66H4z" style="mix-blend-mode:color"/><path fill="#000" fill-rule="evenodd" d="M8 71h58v-1H8v1ZM8 4h58V3H8v1Zm63 62h-1V8h1v58ZM3 66h1V8H3v58Z" clip-rule="evenodd"/><path fill="url(#b)" fill-rule="evenodd" d="M3 2h1v2H2V3h1V2Zm4 1H5v1h2V3ZM4 5H3v2h1V5Zm66-3h1v1h1v1h-2V2Zm1 3h-1v2h1V5Zm-2-2h-2v1h2V3ZM4 71v1H3v-1H2v-1h2v1Zm0-4H3v2h1v-2Zm3 3H5v1h2v-1Zm65 0v1h-1v1h-1v-2h2Zm-3 0h-2v1h2v-1Zm2-3h-1v2h1v-2Z" clip-rule="evenodd"/><path fill="#000" fill-rule="evenodd" d="M5 4H4v1h1V4Zm65 0h-1v1h1V4ZM4 69h1v1H4v-1Zm66 0h-1v1h1v-1Z" clip-rule="evenodd"/><g fill="#000" clip-path="url(#c)"><path d="M22.5 62h1v5h-1zm4 0h1v1h-1zm-4-1h1v1h-1zm1 2h3v1h-3zm0 3h3v1h-3z"/><path d="M22.5 61h4v1h-4zm4 3h1v2h-1z"/></g><g fill="#000" clip-path="url(#d)"><path d="M28.5 61h1v6h-1z"/><path d="M28.5 66h5v1h-5z"/></g><g fill="#000" clip-path="url(#e)"><path d="M34.5 65h1v2h-1zm0-2h1v2h-1zm0-1h1v1h-1zm0-1h1v1h-1zm1 3h2v1h-2zm0 2h4v1h-4z"/><path d="M34.5 61h5v1h-5z"/></g><g fill="#000" clip-path="url(#f)"><path d="M40.5 62h1v5h-1zm4 0h1v2h-1zm0 3h1v2h-1zm-3-1h3v1h-3zm-1-3h4v1h-4z"/></g><g fill="#000" clip-path="url(#g)"><path d="M46.5 62h1v4h-1zm1 4h3v1h-3zm2-2h2v1h-2zm-2-3h3v1h-3z"/><path d="M50.5 64h1v2h-1zm0-3h1v1h-1z"/></g><defs><clipPath id="c"><path fill="#fff" d="M0 0h6v7H0z" transform="translate(22.5 61)"/></clipPath><clipPath id="d"><path fill="#fff" d="M0 0h6v7H0z" transform="translate(28.5 61)"/></clipPath><clipPath id="e"><path fill="#fff" d="M0 0h6v7H0z" transform="translate(34.5 61)"/></clipPath><clipPath id="f"><path fill="#fff" d="M0 0h6v7H0z" transform="translate(40.5 61)"/></clipPath><clipPath id="g"><path fill="#fff" d="M0 0h6v7H0z" transform="translate(46.5 61)"/></clipPath><radialGradient id="b" cx="0" cy="0" r="1" gradientTransform="matrix(0 -45.6579 66.9852 0 35.478 36.552)" gradientUnits="userSpaceOnUse"><stop offset=".141" stop-color="#53FDFE"/><stop offset=".339" stop-color="#008AFF"/><stop offset=".604" stop-color="#E98587"/><stop offset=".75" stop-color="#F4D06F"/><stop offset=".985" stop-color="#53FDFE"/></radialGradient><linearGradient id="a" x1="66.526" x2="19.146" y1="68.565" y2="-3.394" gradientUnits="userSpaceOnUse"><stop stop-color="#53FDFE"/><stop offset=".15" stop-color="#008AFF"/><stop offset=".295" stop-color="#E98587"/><stop offset=".441" stop-color="#F4D06F"/><stop offset=".582" stop-color="#53FDFE"/><stop offset=".712" stop-color="#008AFF"/><stop offset=".853" stop-color="#E98587"/><stop offset="1" stop-color="#F4D06F"/></linearGradient></defs></svg>